<?xml version="1.0" standalone="no"?>
<!DOCTYPE svg PUBLIC "-//W3C//DTD SVG 20010904//EN"
 "http://www.w3.org/TR/2001/REC-SVG-20010904/DTD/svg10.dtd">
<svg version="1.0" xmlns="http://www.w3.org/2000/svg"
 width="1157.000000pt" height="1157.000000pt" viewBox="0 0 1157.000000 1157.000000"
 preserveAspectRatio="xMidYMid meet">
<metadata>
Created by potrace 1.14, written by Peter Selinger 2001-2017
</metadata>
<g transform="translate(0.000000,1157.000000) scale(0.100000,-0.100000)"
fill="#000000" stroke="none">
<path d="M5395 11480 c-192 -16 -234 -20 -355 -35 -893 -112 -1756 -436 -2519
-948 -74 -49 -139 -93 -145 -98 -6 -5 -63 -48 -126 -96 -505 -381 -966 -874
-1323 -1415 -95 -145 -130 -203 -228 -375 -155 -273 -349 -727 -449 -1054
-103 -336 -185 -729 -215 -1034 -4 -38 -9 -78 -11 -87 -19 -105 -26 -732 -12
-953 109 -1616 949 -3144 2273 -4135 665 -497 1424 -846 2235 -1025 144 -32
433 -82 525 -90 38 -4 76 -8 85 -10 24 -5 156 -17 270 -25 138 -10 659 -9 780
1 215 18 250 21 353 35 840 109 1635 392 2342 833 135 84 338 224 445 308 52
40 111 86 130 101 177 138 495 439 682 647 437 486 824 1117 1057 1725 18 47
37 94 42 105 5 11 26 74 48 140 100 301 174 601 220 895 21 129 25 162 37 265
3 33 8 68 10 78 25 141 25 974 -1 1116 -1 9 -6 48 -10 86 -4 39 -9 77 -10 86
-2 9 -6 40 -10 70 -31 253 -129 667 -228 969 -76 230 -221 582 -302 733 -14
27 -42 81 -62 120 -278 544 -738 1137 -1218 1572 -614 555 -1350 979 -2140
1231 -127 41 -477 134 -550 147 -16 3 -91 17 -165 31 -164 31 -316 52 -500 71
-30 3 -80 8 -110 11 -88 9 -746 12 -845 4z"/>
</g>
</svg>
