<?xml version="1.0" standalone="no"?>
<!DOCTYPE svg PUBLIC "-//W3C//DTD SVG 20010904//EN"
 "http://www.w3.org/TR/2001/REC-SVG-20010904/DTD/svg10.dtd">
<svg version="1.0" xmlns="http://www.w3.org/2000/svg"
 width="725.000000pt" height="725.000000pt" viewBox="0 0 725.000000 725.000000"
 preserveAspectRatio="xMidYMid meet">
<metadata>
Created by potrace 1.14, written by Peter Selinger 2001-2017
</metadata>
<g transform="translate(0.000000,725.000000) scale(0.100000,-0.100000)"
fill="#000000" stroke="none">
<path d="M3345 7153 c-208 -15 -509 -69 -720 -128 -617 -173 -1142 -481 -1596
-934 -395 -396 -669 -831 -845 -1346 -89 -258 -143 -511 -174 -820 -9 -81 -6
-589 3 -635 3 -14 8 -52 12 -85 11 -105 45 -286 80 -425 309 -1228 1291 -2211
2550 -2554 118 -32 205 -51 345 -75 114 -19 143 -23 310 -40 87 -9 625 -8 670
2 14 3 52 8 85 12 785 86 1542 446 2121 1007 601 584 971 1348 1051 2173 10
104 10 559 0 655 -118 1118 -736 2086 -1707 2675 -97 59 -320 176 -400 210
-361 152 -692 245 -1015 284 -49 6 -108 14 -130 17 -46 7 -565 13 -640 7z"/>
</g>
</svg>
